<svg xmlns="http://www.w3.org/2000/svg" width="243.774" height="65.822" viewBox="0 0 243.774 65.822"><g transform="translate(-21.763 -14)"><g transform="translate(21.763 14)"><path d="M2892,6619.571c.146.207,1.626,1.65,1.936,1.958.652.652,1.282,1.282,1.934,1.937.734.732,11.48,11.545,11.721,11.672l15.544-15.556c-.137-.263-3.048-3.092-3.4-3.448a11.9,11.9,0,0,0-1.181-1.135,3.361,3.361,0,0,0-.482.5,14.828,14.828,0,0,1-16.987,2.943,14.54,14.54,0,0,1-3.527-2.4,6.261,6.261,0,0,1-.985-1.019c-.22.091-3.014,2.954-3.437,3.369A12.719,12.719,0,0,0,2892,6619.571Z" transform="translate(-2874.657 -6569.316)" fill="#0fa9a6" fill-rule="evenodd"/><path d="M2891,2642.555c.242.308,4.492,4.535,4.628,4.6l10.917-10.917,10.952,10.917c.216-.126,3.046-3,3.47-3.437a8.509,8.509,0,0,0,1.17-1.225,12.208,12.208,0,0,1-.976-.94l-5.818-5.819c-.321-.332-.676-.641-1-.961-.148-.148-7.608-7.664-7.8-7.779Z" transform="translate(-2873.667 -2626.999)" fill="#82bb3a" fill-rule="evenodd"/><path d="M5365,5117.531c.149.269,3.955,3.921,4.546,4.6.24-.139,13.1-13.083,14.6-14.57a12.417,12.417,0,0,0,.982-1,3.289,3.289,0,0,0-.524-.584c-.205-.193-.376-.365-.583-.571-.39-.391-.748-.755-1.144-1.146-.24-.238-2.065-2.142-2.3-2.257a13.446,13.446,0,0,1-2.189,1.708c-3.059,1.833-5.018.78-7.951,3.7-1.867,1.867-1.924,2.831-2.573,5.179A10.085,10.085,0,0,1,5365,5117.531Z" transform="translate(-5319.329 -5073.647)" fill="#116e99" fill-rule="evenodd"/><path d="M2325,4144.7c.115.218,3.586,3.62,3.86,3.9l11.7,11.673,4.72-4.685a7.755,7.755,0,0,0-.94-1c-.344-.34-.653-.649-.985-.983l-12.623-12.624c-.3-.3-.722-.675-.973-.985a28.648,28.648,0,0,0-2.395,2.324c-.412.4-.779.781-1.179,1.181C2325.791,4143.884,2325.345,4144.294,2325,4144.7Z" transform="translate(-2314.153 -4122.667)" fill="#7b8994" fill-rule="evenodd"/><path d="M1378,5107.547l3.884,3.9c1.306,1.315,2.589,2.6,3.894,3.907l5.831,5.82c.274.271,1.8,1.839,1.97,1.945l4.524-4.538a9.823,9.823,0,0,0-.962-.984l-13.62-13.631a5.71,5.71,0,0,0-1.02-.958c-.344.362-.745.742-1.122,1.119l-2.245,2.246c-.206.208-.378.378-.573.573A3.372,3.372,0,0,0,1378,5107.547Z" transform="translate(-1378 -5074.643)" fill="#7b8994" fill-rule="evenodd"/><path d="M3398,3648.713c.08.242.286.366.457.527l1.5,1.514c.286.287,1.843,1.888,2.027,1.993l5.749-5.739c.3.149,5.351,5.429,5.8,5.739l1.994-1.97a27.746,27.746,0,0,0,1.993-2.063c-.262-.182-8.063-8.053-9.13-9.117a2.341,2.341,0,0,0-.675-.6Z" transform="translate(-3374.861 -3627.406)" fill="#82bb3a" fill-rule="evenodd"/><path d="M1879,4658.928l15.579,15.591,3.905-3.93L1882.906,4655c-.263.2-.711.7-.973.95l-1.959,1.973A7.914,7.914,0,0,0,1879,4658.928Z" transform="translate(-1873.261 -4631.771)" fill="#7b8994" fill-rule="evenodd"/><path d="M4919,4670.556l3.892,3.919a7.991,7.991,0,0,0,1.709-2.2,12.506,12.506,0,0,0,.972-2.908,9.579,9.579,0,0,1,1.868-3.989,9.964,9.964,0,0,1,5.914-3.8,9.7,9.7,0,0,0,4.111-1.743,5.3,5.3,0,0,0,1.021-.973L4934.6,4655a10.321,10.321,0,0,0-1.043.883,9.833,9.833,0,0,1-3.917,1.935c-2.406.666-3.37.746-5.21,2.587a8.427,8.427,0,0,0-1.66,2.223,16.336,16.336,0,0,0-.934,3A10.378,10.378,0,0,1,4919,4670.556Z" transform="translate(-4878.439 -4631.771)" fill="#116e99" fill-rule="evenodd"/><path d="M4406,4155.577l4.686,4.686a8.773,8.773,0,0,0,1.684-2.21c1.33-2.475.584-4.754,3.756-7.926,3.519-3.53,6.04-2.155,9.085-4.517a5,5,0,0,0,1.034-.971,12.146,12.146,0,0,1-1.157-1.134l-2.922-2.922c-.194-.193-.4-.491-.656-.583-.329.412-7.376,7.388-7.752,7.767-2.452,2.45-5.027,5.086-7.517,7.51-.042.049-.077.071-.124.118C4406,4155.521,4406.057,4155.428,4406,4155.577Z" transform="translate(-4371.311 -4122.667)" fill="#116e99" fill-rule="evenodd"/><path d="M3393,6172.93a12.359,12.359,0,0,0,1.833,1.725,13.176,13.176,0,0,0,15.945-.008c.182-.15.3-.243.471-.39a8.932,8.932,0,0,0,1.362-1.384l-3.872-3.875c-.218.056-.287.221-.573.434a8.5,8.5,0,0,1-10.687.05l-.585-.47c-.654.63-1.286,1.282-1.935,1.936C3394.66,6171.245,3393.126,6172.722,3393,6172.93Z" transform="translate(-3369.917 -6128.422)" fill="#0fa9a6" fill-rule="evenodd"/><path d="M3851,4548.585l4.56,4.579,4.594-4.565-4.583-4.6c-.767.754-1.511,1.5-2.279,2.281Z" transform="translate(-3822.672 -4522.041)" fill="#82bb3a" fill-rule="evenodd"/><path d="M3840,5659.766a3.026,3.026,0,0,1,.457.352,6.785,6.785,0,0,0,6.954.875,5.539,5.539,0,0,0,1.969-1.364l-4.65-4.627a32.609,32.609,0,0,0-2.384,2.326l-2.061,2.048C3840.149,5659.528,3840.058,5659.55,3840,5659.766Z" transform="translate(-3811.798 -5620.314)" fill="#0fa9a6" fill-rule="evenodd"/></g><g transform="translate(13.763 -108.178)"><g transform="translate(148.276 125.837)"><g transform="translate(0 0)"><g transform="translate(0 0)"><path d="M36.568,51.784c-2.006,0-3.918,0-5.878-.046-.234,0-.516-.327-.7-.56q-7.975-10.355-16.04-20.757c-2.2-2.842-4.384-5.643-6.717-8.489V51.686H0V9.667A39.589,39.589,0,0,0,4.711,9.62a3.315,3.315,0,0,1,3.266,1.632c6.949,9.095,13.95,18.095,20.895,27.1.094.14.186.234.42.516,0-.466.046-.7.046-.979.046-3.171-.094-6.344.14-9.472A21.393,21.393,0,0,1,47.155,9.295a22.425,22.425,0,0,1,17.632,3.964c1.214.887,2.238,1.96,3.312,2.891-.793,1.4-1.586,2.658-2.2,3.964s-1.074,2.658-1.586,4.008c-.373-.653-.7-1.353-1.12-2.006a14.174,14.174,0,0,0-14.879-6.2A13.989,13.989,0,0,0,37.4,27.21a59.431,59.431,0,0,0-.7,9.142c-.14,4.8-.094,9.608-.094,14.459a5.965,5.965,0,0,0-.042.972Z" transform="translate(0 -8.876)" fill="#fff"/><path d="M82.942,38.241a14.725,14.725,0,0,0,9.282,7.137,14.126,14.126,0,0,0,17.444-11.658c.327-1.96.281-3.964.466-5.924A21.009,21.009,0,0,1,131.077,8.9a21.859,21.859,0,0,1,15.858,5.924c.186.186.373.327.653.56-1.54,1.822-3.079,3.591-4.571,5.364-1.214-.933-2.333-1.865-3.591-2.658-4.8-3.125-9.837-3.545-14.879-.653a14.069,14.069,0,0,0-7,11.848,41.421,41.421,0,0,1-.607,6.763A21.524,21.524,0,0,1,98.1,52.28a22.936,22.936,0,0,1-14.412-3.036,1.344,1.344,0,0,1-.793-1.4C82.942,44.684,82.942,41.449,82.942,38.241Z" transform="translate(-44.229 -8.858)" fill="#fff"/><path d="M155.825,70.8a13.3,13.3,0,0,0,5.643,6.251,13.64,13.64,0,0,0,14.087-.186,47.056,47.056,0,0,0,4.431-3.223c1.494,1.4,3.078,2.891,4.615,4.384-8.442,10.168-25.093,9.7-32.6.281C153.353,75.745,154.565,73.272,155.825,70.8Z" transform="translate(-81.104 -41.884)" fill="#fff"/><path d="M63.046,10.7h7.09c0,.56.046,1.074,0,1.54a.891.891,0,0,1-.327.653,24,24,0,0,0-6.671,8.3c0,.046-.094.046-.14.094C63.046,17.79,63.046,14.291,63.046,10.7Z" transform="translate(-33.615 -9.816)" fill="#fff"/></g><g transform="translate(44.738 15.102)"><path d="M99.143,47.98l2.238,2.006,5.364-7.93a1.839,1.839,0,1,1,3.078,2.006l-6.763,10.027a1.873,1.873,0,0,1-2.891,0l-3.686-3.166a1.983,1.983,0,0,1,2.66-2.939Z" transform="translate(-95.884 -41.161)" fill="#fff" fill-rule="evenodd"/></g></g><path d="M5.984,3.6H5L1.472-1.867a2.283,2.283,0,0,1-.22-.43H1.224a7.056,7.056,0,0,1,.038.942V3.6h-.8V-3.258H1.5L4.933,2.119q.215.335.277.459h.019A7.251,7.251,0,0,1,5.181,1.57V-3.258h.8Zm3.738.115a2.27,2.27,0,0,1-1.733-.686,2.541,2.541,0,0,1-.648-1.819A2.647,2.647,0,0,1,8.016-.72a2.423,2.423,0,0,1,1.821-.693,2.2,2.2,0,0,1,1.709.674,2.672,2.672,0,0,1,.614,1.869A2.629,2.629,0,0,1,11.5,3.006,2.32,2.32,0,0,1,9.722,3.711ZM9.779-.753a1.491,1.491,0,0,0-1.195.514,2.11,2.11,0,0,0-.44,1.417,2,2,0,0,0,.445,1.372,1.511,1.511,0,0,0,1.19.5,1.433,1.433,0,0,0,1.169-.492,2.136,2.136,0,0,0,.409-1.4,2.173,2.173,0,0,0-.409-1.415A1.427,1.427,0,0,0,9.779-.753Zm9.182,4.464a3.009,3.009,0,0,1-2.335-.961,3.563,3.563,0,0,1-.877-2.5,3.775,3.775,0,0,1,.894-2.638,3.122,3.122,0,0,1,2.433-.985,2.941,2.941,0,0,1,2.287.956,3.576,3.576,0,0,1,.867,2.5,3.788,3.788,0,0,1-.889,2.653A3.064,3.064,0,0,1,18.961,3.711Zm.057-6.357a2.21,2.21,0,0,0-1.754.779A3.016,3.016,0,0,0,16.59.179a3.037,3.037,0,0,0,.657,2.039,2.143,2.143,0,0,0,1.713.772,2.25,2.25,0,0,0,1.778-.736,3.008,3.008,0,0,0,.65-2.06,3.143,3.143,0,0,0-.631-2.1A2.163,2.163,0,0,0,19.018-2.646Zm5.258,5.535h-.019V3.6h-.784V-3.65h.784V-.438h.019a1.854,1.854,0,0,1,1.692-.975,1.794,1.794,0,0,1,1.475.657,2.714,2.714,0,0,1,.533,1.761,3.034,3.034,0,0,1-.6,1.967,1.989,1.989,0,0,1-1.635.738A1.61,1.61,0,0,1,24.276,2.889ZM24.257.915V1.6a1.455,1.455,0,0,0,.394,1.03,1.407,1.407,0,0,0,2.117-.122,2.5,2.5,0,0,0,.4-1.515A1.973,1.973,0,0,0,26.795-.29a1.25,1.25,0,0,0-1.023-.464,1.389,1.389,0,0,0-1.1.476A1.746,1.746,0,0,0,24.257.915Zm5.755,2.476a3.068,3.068,0,0,1-.485,1.857,1.626,1.626,0,0,1-1.388.652,1.474,1.474,0,0,1-.65-.153V5.016a1.3,1.3,0,0,0,.669.215q1.071,0,1.071-1.711V-1.3h.784Zm-.382-5.932a.5.5,0,0,1-.358-.143.484.484,0,0,1-.148-.363.492.492,0,0,1,.148-.366.492.492,0,0,1,.358-.146.506.506,0,0,1,.366.146.488.488,0,0,1,.151.366.484.484,0,0,1-.151.358A.5.5,0,0,1,29.629-2.541Zm5.9,3.886H32.076a1.831,1.831,0,0,0,.44,1.262,1.516,1.516,0,0,0,1.157.445,2.4,2.4,0,0,0,1.52-.545v.736a2.841,2.841,0,0,1-1.706.468,2.069,2.069,0,0,1-1.63-.667,2.729,2.729,0,0,1-.593-1.876,2.676,2.676,0,0,1,.648-1.862,2.077,2.077,0,0,1,1.608-.719,1.84,1.84,0,0,1,1.486.621A2.591,2.591,0,0,1,35.532.934Zm-.8-.664A1.6,1.6,0,0,0,34.4-.376a1.116,1.116,0,0,0-.9-.378,1.266,1.266,0,0,0-.942.4A1.8,1.8,0,0,0,32.086.681Zm5.324,2.691a2.547,2.547,0,0,1-1.338.339,2.216,2.216,0,0,1-1.69-.681,2.468,2.468,0,0,1-.643-1.766,2.713,2.713,0,0,1,.693-1.943,2.424,2.424,0,0,1,1.85-.734,2.575,2.575,0,0,1,1.138.239v.8A1.993,1.993,0,0,0,38.9-.753a1.576,1.576,0,0,0-1.231.538,2.04,2.04,0,0,0-.48,1.412,1.943,1.943,0,0,0,.452,1.357,1.557,1.557,0,0,0,1.212.5,1.965,1.965,0,0,0,1.2-.425Zm3.456.177a1.511,1.511,0,0,1-.731.153q-1.286,0-1.286-1.434v-2.9h-.841V-1.3h.841V-2.493l.784-.253V-1.3h1.233v.669H42.276V2.129a1.143,1.143,0,0,0,.167.7.668.668,0,0,0,.554.21.824.824,0,0,0,.511-.163Zm1.448-6.089a.5.5,0,0,1-.358-.143.484.484,0,0,1-.148-.363.492.492,0,0,1,.148-.366.492.492,0,0,1,.358-.146.506.506,0,0,1,.366.146.488.488,0,0,1,.151.366.484.484,0,0,1-.151.358A.5.5,0,0,1,44.957-2.541ZM45.34,3.6h-.784V-1.3h.784Zm3.633.115a2.27,2.27,0,0,1-1.733-.686,2.54,2.54,0,0,1-.648-1.819A2.647,2.647,0,0,1,47.266-.72a2.423,2.423,0,0,1,1.821-.693A2.2,2.2,0,0,1,50.8-.739,2.672,2.672,0,0,1,51.41,1.13a2.629,2.629,0,0,1-.662,1.876A2.32,2.32,0,0,1,48.972,3.711Zm.057-4.464a1.491,1.491,0,0,0-1.195.514,2.11,2.11,0,0,0-.44,1.417,2,2,0,0,0,.445,1.372,1.511,1.511,0,0,0,1.19.5A1.433,1.433,0,0,0,50.2,2.559a2.136,2.136,0,0,0,.409-1.4A2.173,2.173,0,0,0,50.2-.256,1.427,1.427,0,0,0,49.029-.753Zm7.7,4.349h-.784V.8q0-1.558-1.138-1.558a1.234,1.234,0,0,0-.973.442A1.639,1.639,0,0,0,53.446.8V3.6h-.784V-1.3h.784v.813h.019a1.766,1.766,0,0,1,1.606-.927A1.5,1.5,0,0,1,56.3-.894,2.31,2.31,0,0,1,56.725.6Zm8.928-.287a4.02,4.02,0,0,1-1.893.4,3.052,3.052,0,0,1-2.342-.942A3.474,3.474,0,0,1,60.539.3a3.642,3.642,0,0,1,.989-2.657,3.358,3.358,0,0,1,2.509-1.013,4.023,4.023,0,0,1,1.616.282v.856a3.276,3.276,0,0,0-1.625-.411,2.494,2.494,0,0,0-1.914.789A2.971,2.971,0,0,0,61.38.25a2.827,2.827,0,0,0,.686,2,2.334,2.334,0,0,0,1.8.743,3.376,3.376,0,0,0,1.788-.459Zm5.224-1.964H67.421a1.831,1.831,0,0,0,.44,1.262,1.516,1.516,0,0,0,1.157.445,2.4,2.4,0,0,0,1.52-.545v.736a2.841,2.841,0,0,1-1.706.468,2.069,2.069,0,0,1-1.63-.667,2.729,2.729,0,0,1-.593-1.876,2.676,2.676,0,0,1,.648-1.862,2.077,2.077,0,0,1,1.608-.719,1.84,1.84,0,0,1,1.486.621A2.591,2.591,0,0,1,70.877.934Zm-.8-.664a1.6,1.6,0,0,0-.327-1.056,1.116,1.116,0,0,0-.9-.378,1.266,1.266,0,0,0-.942.4A1.8,1.8,0,0,0,67.431.681ZM74.615-.5a.958.958,0,0,0-.593-.158,1,1,0,0,0-.839.473,2.188,2.188,0,0,0-.337,1.29V3.6h-.784V-1.3h.784V-.29h.019a1.709,1.709,0,0,1,.511-.805,1.166,1.166,0,0,1,.77-.289,1.28,1.28,0,0,1,.468.067Zm3.121,4.053A1.511,1.511,0,0,1,77,3.7q-1.286,0-1.286-1.434v-2.9h-.841V-1.3h.841V-2.493l.784-.253V-1.3h1.233v.669H76.5V2.129a1.143,1.143,0,0,0,.167.7.668.668,0,0,0,.554.21.824.824,0,0,0,.511-.163Zm1.448-6.089a.5.5,0,0,1-.358-.143.484.484,0,0,1-.148-.363.492.492,0,0,1,.148-.366.492.492,0,0,1,.358-.146.506.506,0,0,1,.366.146.488.488,0,0,1,.151.366.484.484,0,0,1-.151.358A.5.5,0,0,1,79.184-2.541ZM79.566,3.6h-.784V-1.3h.784Zm4.005-6.558a1.044,1.044,0,0,0-.521-.129q-.822,0-.822,1.037V-1.3h1.147v.669H82.229V3.6H81.45V-.629h-.836V-1.3h.836v-.793a1.649,1.649,0,0,1,.445-1.216A1.5,1.5,0,0,1,83-3.755a1.536,1.536,0,0,1,.569.086Zm1.047.421a.5.5,0,0,1-.358-.143.484.484,0,0,1-.148-.363.492.492,0,0,1,.148-.366.492.492,0,0,1,.358-.146.506.506,0,0,1,.366.146.488.488,0,0,1,.151.366.484.484,0,0,1-.151.358A.5.5,0,0,1,84.618-2.541ZM85,3.6h-.784V-1.3H85Zm4.923-.225a2.547,2.547,0,0,1-1.338.339A2.216,2.216,0,0,1,86.9,3.03a2.468,2.468,0,0,1-.643-1.766,2.713,2.713,0,0,1,.693-1.943,2.424,2.424,0,0,1,1.85-.734,2.575,2.575,0,0,1,1.138.239v.8a1.993,1.993,0,0,0-1.166-.382,1.576,1.576,0,0,0-1.231.538,2.04,2.04,0,0,0-.48,1.412,1.943,1.943,0,0,0,.452,1.357,1.557,1.557,0,0,0,1.212.5,1.965,1.965,0,0,0,1.2-.425Zm4.689.225h-.784V2.831H93.81a1.641,1.641,0,0,1-1.506.879,1.609,1.609,0,0,1-1.145-.387A1.341,1.341,0,0,1,90.746,2.3q0-1.372,1.616-1.6L93.829.494q0-1.247-1.008-1.247a2.409,2.409,0,0,0-1.6.6v-.8a3.033,3.033,0,0,1,1.663-.459q1.725,0,1.725,1.826ZM93.829,1.12l-1.181.163a1.917,1.917,0,0,0-.822.27.779.779,0,0,0-.277.686.747.747,0,0,0,.256.586.988.988,0,0,0,.681.227,1.258,1.258,0,0,0,.963-.409,1.46,1.46,0,0,0,.38-1.035ZM98.36,3.548a1.511,1.511,0,0,1-.731.153q-1.286,0-1.286-1.434v-2.9H95.5V-1.3h.841V-2.493l.784-.253V-1.3H98.36v.669H97.127V2.129a1.143,1.143,0,0,0,.167.7.668.668,0,0,0,.554.21.824.824,0,0,0,.511-.163Zm4.98-2.2H99.885a1.831,1.831,0,0,0,.44,1.262,1.516,1.516,0,0,0,1.157.445A2.4,2.4,0,0,0,103,2.506v.736a2.841,2.841,0,0,1-1.706.468,2.069,2.069,0,0,1-1.63-.667,2.729,2.729,0,0,1-.593-1.876A2.676,2.676,0,0,1,99.72-.694a2.077,2.077,0,0,1,1.608-.719,1.84,1.84,0,0,1,1.486.621A2.591,2.591,0,0,1,103.34.934Zm-.8-.664a1.6,1.6,0,0,0-.327-1.056,1.115,1.115,0,0,0-.9-.378,1.266,1.266,0,0,0-.942.4A1.8,1.8,0,0,0,99.894.681Z" transform="translate(0.157 53.263)" fill="#fff"/></g><circle cx="18.5" cy="18.5" r="18.5" transform="translate(89 130)" fill="#fff"/><path d="M14.142-19.836c4.343,0,8.039,2.726,7.993,7.67H6.149C6.611-17.11,10.03-19.836,14.142-19.836ZM25.97-5.467H21.442C20.518-2.741,18.116-.8,14.327-.8c-4.3,0-7.9-2.818-8.224-7.947H26.34a22.792,22.792,0,0,0,.139-2.541c0-6.93-4.805-12.105-12.151-12.105-7.392,0-12.521,5.036-12.521,13.029,0,8.039,5.313,13.122,12.521,13.122C20.611,2.757,24.676-.847,25.97-5.467Z" transform="translate(93.468 158.929)" fill="#26157d" stroke="rgba(0,0,0,0)" stroke-width="1"/><path d="M0,0H8" transform="translate(133 148.61)" fill="none" stroke="#fff" stroke-width="3"/></g></g></svg>