<svg xmlns="http://www.w3.org/2000/svg" xmlns:xlink="http://www.w3.org/1999/xlink" width="40" height="40" viewBox="0 0 40 40"><defs><clipPath id="b"><rect width="40" height="40"/></clipPath></defs><g id="a" clip-path="url(#b)"><path d="M108.654,73.136c-2.127-2.6-3.629-3.929-3.629-11.107,0-6.573-3.357-8.915-6.119-10.053a1.476,1.476,0,0,1-.824-.874,3.695,3.695,0,0,0-7.294,0,1.462,1.462,0,0,1-.824.872c-2.766,1.139-6.119,3.473-6.119,10.053,0,7.178-1.506,8.5-3.633,11.107a1.671,1.671,0,0,0,1.432,2.7H107.23A1.671,1.671,0,0,0,108.654,73.136Zm-8.92,2.7V77.16a5.3,5.3,0,1,1-10.6,0V75.834" transform="translate(-73.523 -44.622)" fill="none" stroke="#fff" stroke-linecap="round" stroke-linejoin="round" stroke-width="2"/></g></svg>