<svg xmlns="http://www.w3.org/2000/svg" xmlns:xlink="http://www.w3.org/1999/xlink" width="40" height="40" viewBox="0 0 40 40"><defs><clipPath id="b"><rect width="40" height="40"/></clipPath></defs><g id="a" clip-path="url(#b)"><g transform="translate(-50.634 14.025)"><g transform="translate(53 -12.9)"><path d="M77.688,6.759A10.869,10.869,0,0,0,81.737-1.8a11.094,11.094,0,0,0-11.1-11.1,11.094,11.094,0,0,0-11.1,11.1A11.073,11.073,0,0,0,63.58,6.759,18.049,18.049,0,0,0,53,23.544a1.306,1.306,0,1,0,2.612,0c0-8.948,6.466-15.675,15.022-15.675S85.656,14.6,85.656,23.544a1.306,1.306,0,1,0,2.612,0A18.049,18.049,0,0,0,77.688,6.759ZM66.062,5.91A1.471,1.471,0,0,0,65.54,5a8.475,8.475,0,0,1-3.4-6.792,8.474,8.474,0,0,1,8.49-8.49,8.474,8.474,0,0,1,8.49,8.49A8.475,8.475,0,0,1,75.728,5a1.322,1.322,0,0,0-.522.914,17.546,17.546,0,0,0-4.572-.588A15.151,15.151,0,0,0,66.062,5.91Z" transform="translate(-53 12.9)" fill="#fff"/></g></g></g></svg>